<?xml version="1.0" encoding="UTF-8"?>
<svg version="1.1" xmlns="http://www.w3.org/2000/svg" width="348" height="348">
<path d="M0 0 C114.84 0 229.68 0 348 0 C348 114.84 348 229.68 348 348 C233.16 348 118.32 348 0 348 C0 233.16 0 118.32 0 0 Z " fill="#F5F7F7" transform="translate(0,0)"/>
<path d="M0 0 C1.12148437 0.00322266 2.24296875 0.00644531 3.3984375 0.00976562 C4.5740625 0.01814453 5.7496875 0.02652344 6.9609375 0.03515625 C8.14429687 0.03966797 9.32765625 0.04417969 10.546875 0.04882812 C13.47661257 0.06064158 16.40625022 0.07711367 19.3359375 0.09765625 C20.81353971 3.05286068 20.46402454 5.69087657 20.46723938 8.99047852 C20.46935509 9.70792048 20.47147081 10.42536243 20.47365063 11.16454506 C20.4796667 13.581066 20.47864932 15.99753495 20.4777832 18.4140625 C20.48081378 20.14195342 20.48433495 21.86984354 20.48831177 23.59773254 C20.49621127 27.3262033 20.50134974 31.05466444 20.50460243 34.78314209 C20.51050787 40.68374565 20.52704554 46.58428874 20.54594421 52.48486328 C20.55228209 54.50469967 20.5586077 56.5245361 20.56492138 58.54437256 C20.56808719 59.55613304 20.571253 60.56789352 20.57451475 61.61031342 C20.61658436 75.35038685 20.64954602 89.09043289 20.66186523 102.83056641 C20.67025572 112.09354507 20.69278649 121.35637476 20.7312209 130.61927891 C20.75095494 135.52018199 20.76339509 140.42086252 20.75838661 145.32180786 C20.75372692 149.93807738 20.76761757 154.55392598 20.79539871 159.1701107 C20.80228938 160.85908311 20.80246004 162.54809923 20.79519844 164.23707008 C20.75414045 174.86522481 21.5905329 183.25923143 27.4609375 192.41015625 C32.73792606 197.34299339 40.02069199 201.21339078 47.36284733 201.23187733 C48.18473484 201.23633517 49.00662235 201.24079301 49.85341555 201.24538594 C50.75611962 201.24520158 51.6588237 201.24501722 52.58888245 201.24482727 C54.02772141 201.2503423 54.02772141 201.2503423 55.49562782 201.25596875 C58.72438549 201.26702145 61.95311099 201.27085215 65.18188477 201.2746582 C67.49119672 201.28092173 69.80050767 201.28756844 72.1098175 201.29457092 C78.3952313 201.31199267 84.68063749 201.32253625 90.96606946 201.33077645 C94.89276019 201.33592493 98.81944856 201.34200079 102.74613762 201.34828758 C113.62273807 201.36515988 124.49933559 201.37979378 135.375947 201.38703632 C138.19830387 201.38894616 141.02066074 201.39086649 143.84301758 201.39282227 C144.54448306 201.39330601 145.24594853 201.39378975 145.96867054 201.39428815 C157.32346168 201.40258249 168.67814727 201.42790868 180.03289235 201.46040294 C191.69702764 201.49350967 203.36110392 201.51115593 215.02528614 201.51468056 C221.57162616 201.51703103 228.11779943 201.52599109 234.66409492 201.55114174 C240.82581127 201.57443161 246.9872512 201.57865176 253.14900017 201.56838036 C255.40722956 201.56788509 257.66547259 201.57420276 259.92366028 201.5879364 C263.01413863 201.60567583 266.10362721 201.59853844 269.19410706 201.58540344 C270.08119608 201.59637269 270.9682851 201.60734193 271.88225561 201.61864358 C279.71112182 201.53868248 286.12979948 199.2149172 292.6484375 194.91015625 C299.08283355 188.17648597 301.37969508 181.4074706 301.65014648 172.26051331 C301.67080484 171.58356206 301.6914632 170.90661082 301.71274757 170.2091459 C301.77876294 167.97231048 301.83723295 165.73536577 301.89453125 163.49829102 C301.92611737 162.33416331 301.92611737 162.33416331 301.9583416 161.14651787 C302.39889723 144.74333282 302.45394576 128.34870575 302.40439987 111.94080043 C302.39413327 108.06084549 302.3908599 104.18088424 302.38696289 100.30091858 C302.37607457 90.54565064 302.35639373 80.79040804 302.3359375 71.03515625 C302.31377984 60.37845787 302.29336605 49.72176788 302.28251934 39.06505114 C302.27755183 34.47183059 302.26772259 29.87865443 302.25408936 25.28545177 C302.24665784 22.4545047 302.24332081 19.62356377 302.2411232 16.79260826 C302.23834847 14.85146695 302.23054946 12.91033488 302.22262573 10.96920776 C302.22255524 9.82222916 302.22248474 8.67525055 302.22241211 7.49351501 C302.2201915 6.49366042 302.21797089 5.49380583 302.21568298 4.46365261 C302.3359375 2.09765625 302.3359375 2.09765625 303.3359375 0.09765625 C307.41921107 0.03957905 311.50237833 0.00403376 315.5859375 -0.02734375 C317.32423828 -0.05248047 317.32423828 -0.05248047 319.09765625 -0.078125 C320.21269531 -0.08457031 321.32773437 -0.09101562 322.4765625 -0.09765625 C324.01618652 -0.1133667 324.01618652 -0.1133667 325.58691406 -0.12939453 C328.54967405 0.11530945 329.99451888 0.26532355 332.3359375 2.09765625 C335.86431437 8.3765744 335.75126194 14.12830538 335.69670105 21.21470642 C335.6992691 22.43056931 335.70183716 23.64643219 335.70448303 24.8991394 C335.70857684 28.26838846 335.6991982 31.63711235 335.68415569 35.00629799 C335.67103425 38.69737386 335.67544093 42.38843695 335.67760944 46.07952976 C335.67920301 53.24114408 335.6653649 60.40264534 335.64610546 67.56423062 C335.62449101 75.84983836 335.62212042 84.13537836 335.61975098 92.42102051 C335.60400504 114.29241698 335.56212163 136.16378832 335.5234375 158.03515625 C335.4615625 206.89578125 335.3996875 255.75640625 335.3359375 306.09765625 C220.4959375 306.09765625 105.6559375 306.09765625 -12.6640625 306.09765625 C-12.7671875 256.88640625 -12.8703125 207.67515625 -12.9765625 156.97265625 C-13.02208252 141.41737793 -13.06760254 125.86209961 -13.11450195 109.83544922 C-13.13708496 90.88305664 -13.13708496 90.88305664 -13.14128113 82.01882935 C-13.14595123 75.80983051 -13.16432302 69.60105562 -13.19194031 63.39212036 C-13.22373165 56.23421136 -13.23825062 49.07651778 -13.23128725 41.91853762 C-13.22827054 38.25557881 -13.23310609 34.59310166 -13.26013815 30.93023086 C-13.28889341 27.01009703 -13.27905284 23.09060762 -13.26533508 19.17037964 C-13.27989841 18.02479143 -13.29446173 16.87920322 -13.30946636 15.69890022 C-13.22828767 7.10498494 -13.22828767 7.10498494 -10.25148296 3.40561104 C-6.55252663 0.10617667 -4.86536879 -0.02457257 0 0 Z " fill="#018294" transform="translate(12.6640625,41.90234375)"/>
<path d="M0 0 C0.98035028 -0.00155999 1.96070057 -0.00311998 2.97075844 -0.00472724 C6.27658183 -0.00873607 9.58235981 -0.00554804 12.88818359 -0.00241089 C15.24973579 -0.00376498 17.61128777 -0.00554496 19.97283936 -0.00772095 C25.73376793 -0.01181872 31.49468191 -0.01120334 37.25561094 -0.00830831 C41.93613511 -0.00605324 46.61665562 -0.0057422 51.29718018 -0.00683212 C52.29503758 -0.00706197 52.29503758 -0.00706197 53.31305373 -0.00729647 C54.6643192 -0.00761618 56.01558467 -0.00794039 57.36685014 -0.00826906 C70.04846114 -0.01112308 82.73006492 -0.00783804 95.41167474 -0.00246869 C106.30163443 0.00199928 117.19158347 0.00122332 128.08154297 -0.00338745 C140.71665561 -0.00873459 153.35176192 -0.01084839 165.98687553 -0.00777519 C167.33327103 -0.00745663 168.67966652 -0.00714226 170.02606201 -0.00683212 C171.01983461 -0.00660071 171.01983461 -0.00660071 172.03368342 -0.00636462 C176.71054716 -0.00549988 181.3874069 -0.00696141 186.06427002 -0.00931168 C192.35473617 -0.01219097 198.6451821 -0.0102136 204.93564606 -0.00441742 C207.25043962 -0.00309014 209.56523487 -0.0034834 211.88002777 -0.00568008 C215.02778923 -0.00839282 218.17548497 -0.0050089 221.32324219 0 C222.24987986 -0.00223072 223.17651752 -0.00446144 224.13123512 -0.00675976 C230.43332112 0.01283366 230.43332112 0.01283366 232.66162109 1.12698364 C232.73172422 16.0347291 232.78461565 30.94246178 232.81705761 45.85033703 C232.83252185 52.77244263 232.85360278 59.69444576 232.88793945 66.6164856 C232.92105178 73.29489364 232.9384677 79.97317316 232.94625282 86.65166664 C232.95180185 89.20139556 232.96263753 91.75111857 232.97881126 94.30080223 C233.00054385 97.86823564 233.00358969 101.43522725 233.00219727 105.00271606 C233.01298309 106.06007462 233.02376892 107.11743317 233.03488159 108.20683289 C232.99595617 117.40492355 232.99595617 117.40492355 229.66162109 121.12698364 C226.87499827 122.78769765 224.82088285 123.3774284 221.5914011 123.38145924 C220.78533942 123.38729143 219.97927774 123.39312362 219.14878994 123.39913255 C218.2689338 123.39535323 217.38907766 123.3915739 216.4825592 123.38768005 C215.54345229 123.3915056 214.60434538 123.39533115 213.63678068 123.39927262 C210.48232524 123.40961149 207.32805152 123.40560877 204.17358398 123.40164185 C201.91512381 123.40598781 199.65666511 123.41117057 197.39820862 123.41712952 C191.25779316 123.43054284 185.11743917 123.43109561 178.97701192 123.42856622 C173.85501592 123.42749813 168.73303243 123.43237569 163.6110391 123.43717164 C150.83880474 123.44891005 138.06661495 123.44803712 125.29438102 123.44161483 C114.20141869 123.43644523 103.10854416 123.44770176 92.0155992 123.46671305 C80.62604255 123.48608309 69.23653957 123.49405737 57.84696192 123.4905898 C51.45230098 123.4887741 45.05772046 123.49144167 38.66307259 123.50530434 C32.6507614 123.51784997 26.63862636 123.51596948 20.62631798 123.50289345 C18.41759813 123.50052103 16.20886601 123.50328604 14.00016022 123.51151657 C10.98912272 123.5219293 7.97868227 123.51392727 4.96766663 123.50120544 C3.65122849 123.51226687 3.65122849 123.51226687 2.30819565 123.52355176 C-2.36161248 123.48193627 -5.61758289 123.27098648 -9.33837891 120.12698364 C-11.36022578 117.19025335 -11.58656879 114.79795243 -11.57888794 111.28012085 C-11.58163727 110.30699448 -11.5843866 109.3338681 -11.58721924 108.33125305 C-11.58002869 107.27029922 -11.57283813 106.2093454 -11.56542969 105.11624146 C-11.56572174 103.99399673 -11.56601379 102.87175201 -11.5663147 101.71549988 C-11.56492062 98.00362433 -11.54935548 94.29194915 -11.53369141 90.58010864 C-11.52996156 88.00749827 -11.52711445 85.43488647 -11.52511597 82.86227417 C-11.51825818 76.78144781 -11.50249292 70.70070422 -11.48241699 64.61990905 C-11.46005462 57.69613713 -11.44906371 50.77236176 -11.43902612 43.84856272 C-11.41812657 29.60799771 -11.38295269 15.36749323 -11.33837891 1.12698364 C-7.86282961 -0.61079101 -3.82593532 -0.00921028 0 0 Z " fill="#028293" transform="translate(63.33837890625,101.87301635742188)"/>
<path d="M0 0 C0.33 0 0.66 0 1 0 C1 23.43 1 46.86 1 71 C-113.84 71 -228.68 71 -347 71 C-347 48.56 -347 26.12 -347 3 C-345.02 4.65 -343.04 6.3 -341 8 C-337.85248414 9.25064744 -334.75399719 9.12720756 -331.38645363 9.13142776 C-329.66100191 9.13718948 -329.66100191 9.13718948 -327.90069258 9.1430676 C-326.63631468 9.14220112 -325.37193677 9.14133463 -324.06924438 9.14044189 C-322.71300814 9.14302581 -321.35677266 9.14603904 -320.00053823 9.1494453 C-316.2700377 9.15751529 -312.5395564 9.15930486 -308.80904818 9.16004276 C-304.78714767 9.16189328 -300.76525716 9.16944053 -296.74336243 9.17617798 C-287.94802376 9.18976105 -279.15268965 9.19578576 -270.35734224 9.20018864 C-264.86697448 9.20295067 -259.37660848 9.20718791 -253.88624191 9.21169281 C-238.6886716 9.22388463 -223.4911027 9.23418464 -208.2935276 9.2375679 C-206.83448623 9.23789725 -206.83448623 9.23789725 -205.34596928 9.23823325 C-204.37093655 9.23845153 -203.39590382 9.23866981 -202.39132464 9.2388947 C-200.41550549 9.23933817 -198.43968634 9.23978473 -196.46386719 9.24023438 C-195.4837908 9.2404558 -194.50371441 9.24067723 -193.49393873 9.24090537 C-177.60673648 9.24485493 -161.71958005 9.26231416 -145.83239551 9.2855939 C-129.52615913 9.30929512 -113.21994576 9.32176916 -96.91369188 9.32293582 C-87.75629517 9.32385319 -78.59895819 9.32962111 -69.44157791 9.34775543 C-61.64539469 9.36313972 -53.84928967 9.36828672 -46.05309416 9.36001733 C-42.07464062 9.3561051 -38.09634464 9.35706827 -34.11791039 9.37107468 C-30.47603139 9.38377914 -26.83442889 9.38264674 -23.19255047 9.37048396 C-21.25062075 9.36759085 -19.3086864 9.3794888 -17.36679423 9.39190602 C-9.21654117 9.4579906 -9.21654117 9.4579906 -2 6 C-0.56031273 2.93638223 -0.56031273 2.93638223 0 0 Z " fill="#F5F7F7" transform="translate(347,277)"/>
<path d="M0 0 C0.7921281 -0.00322445 1.5842562 -0.00644889 2.40038818 -0.00977105 C3.69682671 -0.00744815 3.69682671 -0.00744815 5.01945591 -0.00507832 C5.94222861 -0.00734387 6.86500132 -0.00960943 7.81573683 -0.01194364 C10.91487023 -0.01828536 14.01395992 -0.01745416 17.1130991 -0.01662922 C19.33214976 -0.01962057 21.55119991 -0.02302305 23.77024937 -0.02680683 C29.80321645 -0.03565275 35.83616935 -0.03798518 41.86914229 -0.03862262 C46.90166295 -0.03957126 51.93418028 -0.04324898 56.96669966 -0.04679471 C68.15852114 -0.05447578 79.35033737 -0.05746313 90.54216092 -0.05678936 C91.21364669 -0.0567494 91.88513246 -0.05670945 92.57696629 -0.05666828 C93.58542436 -0.05660696 93.58542436 -0.05660696 94.61425532 -0.0565444 C105.51320163 -0.05613783 116.41211342 -0.06571038 127.31104975 -0.07980665 C138.50171407 -0.09416607 149.69236574 -0.10089389 160.88304049 -0.10021287 C167.16590327 -0.09995756 173.44872697 -0.10282734 179.73158169 -0.11339092 C185.63879857 -0.12305162 191.54593884 -0.12316503 197.45315838 -0.11587429 C199.62317739 -0.11482597 201.79320112 -0.11720594 203.96321201 -0.12323475 C206.92158538 -0.13092255 209.87969203 -0.12633115 212.83805943 -0.11860371 C214.13115187 -0.12631905 214.13115187 -0.12631905 215.45036739 -0.13419026 C223.26872175 -0.0889488 223.26872175 -0.0889488 226.99224949 2.12863445 C243.87956934 23.23778427 230.99224949 56.09573269 230.99224949 83.12863445 C150.47224949 83.12863445 69.95224949 83.12863445 -13.00775051 83.12863445 C-13.00775051 7.12863445 -13.00775051 7.12863445 -8.00775051 1.12863445 C-5.34867617 0.01064484 -2.867878 0.00296085 0 0 Z " fill="#008294" transform="translate(65.00775051116943,-0.12863445281982422)"/>
<path d="M0 0 C33.66 0 67.32 0 102 0 C102 6.6 102 13.2 102 20 C105.36058594 19.94779297 105.36058594 19.94779297 108.7890625 19.89453125 C110.97345711 19.87109454 113.15783738 19.85290151 115.34228516 19.83520508 C116.85341727 19.82017457 118.36450618 19.79974436 119.87548828 19.77368164 C122.05512187 19.73704311 124.23417575 19.72021662 126.4140625 19.70703125 C127.7232666 19.6913208 129.0324707 19.67561035 130.38134766 19.65942383 C134.29487137 20.02775237 136.66972887 20.95095732 140 23 C142.23271843 25.75368606 142.93532328 27.48258624 143.375 31 C142.93942763 34.48457897 142.16232881 36.24116669 140 39 C135.97334751 41.9933825 133.02802649 42.37783981 128.06117249 42.38768005 C127.37509696 42.39306559 126.68902143 42.39845113 125.98215574 42.40399987 C123.68982414 42.41827463 121.39807039 42.41117723 119.10571289 42.40405273 C117.45955441 42.40975658 115.81339988 42.41672089 114.16725159 42.42485046 C109.7002881 42.44279556 105.2335209 42.44161096 100.76653218 42.43590808 C97.03635475 42.43281816 93.30621512 42.4389065 89.57604307 42.44494683 C80.77567968 42.4589949 71.97541335 42.45742844 63.17504883 42.44604492 C54.09828549 42.43456328 45.02181761 42.44863947 35.94509321 42.4754414 C28.1496129 42.4975976 20.35422533 42.50423596 12.55871576 42.49836498 C7.9038949 42.49499402 3.24926344 42.49741969 -1.40553093 42.51461601 C-5.78296506 42.53008182 -10.15996149 42.5261338 -14.53737831 42.50731087 C-16.14258109 42.50362396 -17.74781627 42.50673648 -19.3529892 42.51719666 C-21.54722641 42.53040225 -23.74001361 42.51886514 -25.93418884 42.50120544 C-27.16105376 42.50099616 -28.38791868 42.50078688 -29.65196133 42.50057125 C-33.66468253 41.90062213 -35.83880314 40.49357498 -39 38 C-41.35242347 34.79214982 -41.4684209 31.90350748 -41 28 C-39.30825839 24.74183098 -38.10258739 22.57691954 -34.80981445 20.85400391 C-31.37368974 19.80964173 -28.32109212 19.67459487 -24.73046875 19.5859375 C-24.04946609 19.56657135 -23.36846344 19.5472052 -22.66682434 19.5272522 C-20.50717407 19.46781868 -18.34746943 19.421218 -16.1875 19.375 C-14.71677456 19.33678672 -13.24607071 19.29773306 -11.77539062 19.2578125 C-8.18371068 19.16057582 -4.59224033 19.0807245 -1 19 C-0.67 12.73 -0.34 6.46 0 0 Z " fill="#018294" transform="translate(123,306)"/>
<path d="M0 0 C2.77835049 1.26288659 4.49102772 2.3522171 6.375 4.75 C7.33008949 8.18832218 6.90421661 10.56397688 6 14 C1.57373579 19.16246011 -4.08675422 23.00070416 -9.5 27.0625 C-11.36495798 28.46955565 -13.22955299 29.87709255 -15.09375 31.28515625 C-16.32641602 32.21146851 -16.32641602 32.21146851 -17.58398438 33.15649414 C-20.08745205 35.06672902 -22.54827694 37.0239396 -25 39 C-23.48600304 43.26054272 -20.34701354 45.14584772 -16.75 47.5625 C-11.47232453 51.22016459 -6.30802011 54.9806945 -1.25 58.9375 C-0.65413086 59.39777588 -0.05826172 59.85805176 0.55566406 60.33227539 C3.21669728 62.42480107 5.1049506 64.1574259 7 67 C7.50256748 71.62362084 6.86230692 74.3198911 4 78 C1.47920981 79.98062087 0.12683174 80.00335449 -3.1015625 79.91796875 C-8.16797327 79.10765771 -11.66981203 76.02194697 -15.625 72.9375 C-16.43533691 72.32205322 -17.24567383 71.70660645 -18.08056641 71.07250977 C-19.81650588 69.75193097 -21.54798808 68.4254762 -23.27539062 67.09375 C-26.08036919 64.93823959 -28.9045905 62.81031735 -31.734375 60.6875 C-33.61504453 59.27144564 -35.49526366 57.85479288 -37.375 56.4375 C-38.26010254 55.77161865 -39.14520508 55.1057373 -40.05712891 54.41967773 C-51.40378786 45.78863642 -51.40378786 45.78863642 -53 41 C-53 37.19728454 -52.26114291 36.06932485 -50 33 C-47.46213207 30.68198933 -44.74527961 28.62765196 -42 26.5625 C-41.21197998 25.95994385 -40.42395996 25.3573877 -39.61206055 24.73657227 C-31.50083611 18.55975366 -23.30722061 12.48691014 -15.05664062 6.49755859 C-13.69975087 5.50952894 -12.34928835 4.51260359 -11.00585938 3.50634766 C-7.09833893 0.61465952 -4.9345143 -0.8581764 0 0 Z " fill="#F3F7F7" transform="translate(136,124)"/>
<path d="M0 0 C3.08783609 1.69350586 5.79304554 3.83386729 8.5625 6 C9.37807373 6.6199585 10.19364746 7.23991699 11.03393555 7.87866211 C12.78186099 9.20969681 14.52496379 10.54708388 16.26367188 11.89013672 C19.06412278 14.04944228 21.88106666 16.1854348 24.703125 18.31640625 C29.82053692 22.18737636 34.93362035 26.06235459 40 30 C40.93827637 30.71917603 40.93827637 30.71917603 41.89550781 31.45288086 C44.80657166 33.75581151 45.93715306 34.80796768 47.125 38.4375 C46.97614795 42.67978348 45.72092238 44.89381846 43 48 C40.32246985 50.32015733 37.46077114 52.34098037 34.5625 54.375 C32.86321687 55.59445228 31.16535546 56.81588757 29.46875 58.0390625 C28.58058594 58.6774707 27.69242188 59.31587891 26.77734375 59.97363281 C21.05191126 64.15094379 15.45987463 68.50725903 9.85571289 72.84521484 C9.0177417 73.4892627 8.17977051 74.13331055 7.31640625 74.796875 C6.57849854 75.36760742 5.84059082 75.93833984 5.08032227 76.52636719 C1.69136048 78.92699779 -0.21705768 80 -4.4375 80 C-9.08124769 78.69649188 -10.55611574 77.12405469 -13 73 C-13.14615842 68.834485 -12.75706994 66.85518152 -9.98046875 63.71875 C-6.29397679 60.20663707 -2.22268092 57.1580269 1.8125 54.0625 C2.58142578 53.46759766 3.35035156 52.87269531 4.14257812 52.25976562 C9.06157213 48.46155507 14.01814599 44.7152954 19 41 C17.52259949 37.35258879 15.58270169 35.62551611 12.45703125 33.28515625 C11.54759766 32.59873047 10.63816406 31.91230469 9.70117188 31.20507812 C8.2712793 30.14450195 8.2712793 30.14450195 6.8125 29.0625 C5.87857422 28.35931641 4.94464844 27.65613281 3.98242188 26.93164062 C-0.00297654 23.93908601 -4.00551411 20.98058196 -8.08203125 18.11328125 C-12.27631704 15.07565259 -12.27631704 15.07565259 -13 12 C-12.85713475 7.99977313 -12.61728563 5.75667271 -10.0625 2.625 C-6.57048498 -0.12628456 -4.44936835 -0.57082389 0 0 Z " fill="#F4F7F7" transform="translate(218,124)"/>
<path d="M0 0 C3.56154765 2.28476642 5.64384262 3.67339794 6.76017761 7.83148193 C7.01784206 11.23572817 6.59504403 13.34696676 5.5246582 16.57128906 C5.1771199 17.63970032 4.8295816 18.70811157 4.47151184 19.80889893 C3.8920002 21.51997833 3.8920002 21.51997833 3.30078125 23.265625 C2.90932419 24.45420105 2.51786713 25.6427771 2.11454773 26.86737061 C1.28407506 29.38115918 0.44893724 31.89271216 -0.39526367 34.40185547 C-1.67898849 38.21742808 -2.94077468 42.03993673 -4.20117188 45.86328125 C-5.01199717 48.31023527 -5.82381452 50.75686084 -6.63671875 53.203125 C-7.01293869 54.33574768 -7.38915863 55.46837036 -7.77677917 56.63531494 C-13.9463046 74.9931355 -13.9463046 74.9931355 -17.8125 78.6875 C-21.80029777 80.32953438 -23.88195579 80.22016125 -28 79 C-30.7964406 77.01305536 -31.78457816 75.71593675 -32.77148438 72.43603516 C-33.08376134 67.7405373 -31.78885226 64.1220642 -30.28125 59.7109375 C-29.98569214 58.81243073 -29.69013428 57.91392395 -29.38562012 56.9881897 C-28.43620485 54.11281864 -27.4682742 51.24406796 -26.5 48.375 C-25.87902027 46.50039314 -25.25921791 44.62539583 -24.640625 42.75 C-23.09800455 38.08854607 -21.52783424 33.43698497 -19.9453125 28.78894043 C-18.98934128 25.96855376 -18.04901466 23.14324675 -17.109375 20.31738281 C-16.50067436 18.51604802 -15.89132599 16.71493195 -15.28125 14.9140625 C-15.00994263 14.08852875 -14.73863525 13.262995 -14.45910645 12.41244507 C-11.83921089 4.77168202 -8.9592074 -1.0337547 0 0 Z " fill="#F2F8F8" transform="translate(187,124)"/>
<path d="M0 0 C1.41869463 0.00334608 1.41869463 0.00334608 2.86604977 0.00675976 C3.8625854 0.00519977 4.85912104 0.00363978 5.88585472 0.00203252 C9.25239601 -0.00198215 12.61889285 0.00121396 15.98543453 0.00434887 C18.38787011 0.00299504 20.79030547 0.00121521 23.19274044 -0.00096118 C29.05707641 -0.00506154 34.92140067 -0.00444223 40.78573632 -0.00154854 C45.54972168 0.00070533 50.31370344 0.00101808 55.07768917 -0.00007236 C56.09283507 -0.00030221 56.09283507 -0.00030221 57.12848896 -0.0005367 C58.50310969 -0.00085641 59.87773043 -0.00118062 61.25235116 -0.00150929 C74.15711332 -0.00436421 87.06186839 -0.00107689 99.96662939 0.00429107 C111.05135184 0.00875912 122.13606383 0.00798319 133.22078609 0.00337231 C146.07781967 -0.00197325 158.93484703 -0.00408952 171.79188156 -0.00101542 C173.16158517 -0.00069686 174.53128878 -0.00038249 175.90099239 -0.00007236 C176.5749996 0.00008192 177.2490068 0.00023619 177.94343847 0.00039514 C182.70441743 0.00126035 187.46539246 -0.00020267 192.22637081 -0.00255191 C198.62844428 -0.00564135 205.03050257 -0.00345737 211.43257427 0.00234234 C213.78971352 0.00367065 216.14685443 0.00327464 218.50399303 0.00107968 C221.70689562 -0.00162906 224.90973341 0.0017459 228.1126318 0.00675976 C229.05842822 0.00452904 230.00422464 0.00229832 230.97868156 0 C237.37519098 0.0195936 237.37519098 0.0195936 238.48934078 1.13374341 C238.58951413 2.6681358 238.62009649 4.20712561 238.62305355 5.74478161 C238.62945103 7.24009915 238.62945103 7.24009915 238.63597775 8.76562512 C238.63552456 9.86848355 238.63507137 10.97134198 238.63460445 12.10762036 C238.63796307 13.26201611 238.64132168 14.41641186 238.64478207 15.6057893 C238.6543269 19.44454519 238.65623705 23.28325762 238.65730953 27.12202466 C238.65970927 29.10804062 238.66211051 31.09405659 238.66476995 33.08007222 C238.67292305 39.33063187 238.67535348 45.5811771 238.67464352 51.83174145 C238.67404314 58.28178047 238.68458493 64.73173574 238.70038718 71.18175358 C238.71346218 76.71555243 238.7188274 82.24932392 238.71818811 87.7831381 C238.71793302 91.08981758 238.72170654 94.3964059 238.73136616 97.70307362 C238.74113354 101.39268116 238.73830058 105.08207203 238.7322607 108.77168286 C238.73788021 109.86846859 238.74349972 110.96525433 238.74928951 112.095276 C238.74509502 113.10061383 238.74090054 114.10595166 238.73657894 115.14175427 C238.73712371 116.0143152 238.73766848 116.88687613 238.73822975 117.7858783 C238.45693189 120.43946895 238.08364811 121.98205982 236.48934078 124.13374341 C231.98873019 125.77427348 226.76589809 125.27878121 222.02471066 125.2741853 C221.06700398 125.27715642 220.1092973 125.28012754 219.1225692 125.2831887 C215.91132146 125.29186514 212.70011104 125.29338303 209.4888525 125.29487622 C207.18759233 125.29950493 204.88633293 125.30452967 202.58507442 125.30992138 C196.33330263 125.32303745 190.08154157 125.32948816 183.82975817 125.33393204 C179.92689748 125.3368625 176.02403974 125.34096713 172.12118053 125.34543622 C161.31568351 125.3575401 150.51018973 125.36792521 139.70468616 125.37131131 C139.01369542 125.37153087 138.32270468 125.37175044 137.61077482 125.37197666 C136.91814387 125.37219494 136.22551292 125.37241321 135.51189315 125.37263811 C134.1083796 125.37308157 132.70486605 125.37352814 131.3013525 125.37397778 C130.25706837 125.37430992 130.25706837 125.37430992 129.1916876 125.37464878 C117.89698072 125.37860153 106.60233816 125.39607294 95.30765615 125.4193373 C83.71242245 125.44302828 72.11722427 125.4552538 60.5219661 125.45667922 C54.01112316 125.45772973 47.5003711 125.46369019 40.98955059 125.48149884 C34.87136335 125.49790899 28.75333602 125.50016952 22.6351347 125.49135983 C20.38525624 125.4905858 18.13536943 125.49497988 15.88551235 125.50481808 C12.82348242 125.51742679 9.76202854 125.51172153 6.70000362 125.50123608 C5.35250446 125.51332069 5.35250446 125.51332069 3.97778308 125.52564943 C3.15977887 125.51905958 2.34177465 125.51246974 1.49898243 125.5056802 C0.7919955 125.50627729 0.08500856 125.50687438 -0.64340222 125.50748956 C-3.08402255 125.01898023 -3.9980743 124.07290934 -5.51065922 122.13374341 C-5.51065922 121.47374341 -5.51065922 120.81374341 -5.51065922 120.13374341 C-6.17065922 120.13374341 -6.83065922 120.13374341 -7.51065922 120.13374341 C-7.53398868 104.63534484 -7.55163862 89.13694759 -7.56247139 73.63853562 C-7.56763425 66.44284046 -7.57467675 59.24715619 -7.58609867 52.05146801 C-7.59604582 45.78189646 -7.60251272 39.51233279 -7.60474771 33.24275357 C-7.60605477 29.9210872 -7.60965919 26.59944874 -7.61638927 23.27778828 C-7.6235955 19.57554393 -7.62465034 15.8733471 -7.62418461 12.17109692 C-7.62777988 11.06195431 -7.63137516 9.9528117 -7.63507938 8.81005871 C-7.63370472 7.80739972 -7.63233006 6.80474072 -7.63091373 5.77169812 C-7.63183553 4.89507299 -7.63275732 4.01844786 -7.63370705 3.11525834 C-7.35502328 -1.37255788 -3.65526522 0.0111967 0 0 Z M-6.51065922 2.13374341 C-6.58076235 17.04148887 -6.63365377 31.94922155 -6.66609573 46.85709679 C-6.68155997 53.77920239 -6.7026409 60.70120553 -6.73697758 67.62324536 C-6.77008991 74.3016534 -6.78750582 80.97993293 -6.79529095 87.6584264 C-6.80083998 90.20815533 -6.81167566 92.75787833 -6.82784939 95.30756199 C-6.84958198 98.87499541 -6.85262781 102.44198702 -6.85123539 106.00947583 C-6.86202122 107.06683438 -6.87280704 108.12419293 -6.88391972 109.21359265 C-6.94724511 116.21784783 -6.94724511 116.21784783 -3.51065922 122.13374341 C-0.72403639 123.79445742 1.33007903 124.38418816 4.55956078 124.388219 C5.36562246 124.39405119 6.17168414 124.39988339 7.00217193 124.40589231 C8.32195615 124.40022333 8.32195615 124.40022333 9.66840267 124.39443982 C10.60750959 124.39826536 11.5466165 124.40209091 12.5141812 124.40603238 C15.66863663 124.41637125 18.82291035 124.41236853 21.97737789 124.40840161 C24.23583807 124.41274758 26.49429676 124.41793034 28.75275326 124.42388928 C34.89316871 124.43730261 41.0335227 124.43785537 47.17394996 124.43532598 C52.29594596 124.43425789 57.41792945 124.43913545 62.53992277 124.4439314 C75.31215713 124.45566981 88.08434693 124.45479688 100.85658086 124.44837459 C111.94954319 124.443205 123.04241772 124.45446152 134.13536268 124.47347281 C145.52491932 124.49284285 156.9144223 124.50081713 168.30399996 124.49734956 C174.6986609 124.49553387 181.09324142 124.49820143 187.48788929 124.5120641 C193.50020048 124.52460973 199.51233552 124.52272925 205.5246439 124.50965321 C207.73336375 124.50728079 209.94209587 124.51004581 212.15080166 124.51827633 C215.16183916 124.52868906 218.17227961 124.52068703 221.18329525 124.50796521 C222.06092067 124.51533949 222.93854609 124.52271378 223.84276623 124.53031152 C228.51257435 124.48869604 231.76854476 124.27774624 235.48934078 121.13374341 C237.51118765 118.19701311 237.73753067 115.8047122 237.72984982 112.28688061 C237.73259914 111.31375424 237.73534847 110.34062787 237.73818111 109.33801281 C237.73099056 108.27705899 237.72380001 107.21610516 237.71639156 106.12300122 C237.71668362 105.0007565 237.71697567 103.87851178 237.71727657 102.72225964 C237.7158825 99.01038409 237.70031735 95.29870892 237.68465328 91.58686841 C237.68092344 89.01425803 237.67807633 86.44164624 237.67607784 83.86903393 C237.66922005 77.78820757 237.6534548 71.70746398 237.63337886 65.62666881 C237.6110165 58.7028969 237.60002559 51.77912152 237.58998799 44.85532248 C237.56908844 30.61475747 237.53391457 16.374253 237.48934078 2.13374341 C234.01379149 0.39596876 229.9768972 0.99754948 226.15096188 1.00675976 C225.17061159 1.00519977 224.19026131 1.00363978 223.18020344 1.00203252 C219.87438005 0.9980237 216.56860207 1.00121172 213.26277828 1.00434887 C210.90122609 1.00299478 208.5396741 1.0012148 206.17812252 0.99903882 C200.41719395 0.99494104 194.65627996 0.99555642 188.89535093 0.99845146 C184.21482677 1.00070652 179.53430625 1.00101756 174.8537817 0.99992764 C174.18854343 0.99977441 173.52330516 0.99962117 172.83790815 0.9994633 C171.48664268 0.99914358 170.13537721 0.99881937 168.78411174 0.99849071 C156.10250074 0.99563669 143.42089696 0.99892172 130.73928714 1.00429107 C119.84932744 1.00875904 108.95937841 1.00798309 98.06941891 1.00337231 C85.43430627 0.99802518 72.79919996 0.99591137 60.16408634 0.99898458 C58.81769085 0.99930314 57.47129536 0.99961751 56.12489986 0.99992764 C55.4623848 1.00008192 54.79986974 1.00023619 54.11727846 1.00039514 C49.44041471 1.00125988 44.76355498 0.99979835 40.08669186 0.99744809 C33.79622571 0.99456879 27.50577977 0.99654616 21.21531582 1.00234234 C18.90052226 1.00366962 16.58572701 1.00327636 14.2709341 1.00107968 C11.12317265 0.99836694 7.9754769 1.00175087 4.82771969 1.00675976 C3.90108202 1.00452904 2.97444435 1.00229832 2.01972675 1 C-2.38306586 0.87124099 -2.38306586 0.87124099 -6.51065922 2.13374341 Z " fill="#DCFEFE" transform="translate(58.51065921783447,100.8662565946579)"/>
<path d="M0 0 C0.33 0.66 0.66 1.32 1 2 C-0.175625 2.0928125 -0.175625 2.0928125 -1.375 2.1875 C-2.24125 2.455625 -3.1075 2.72375 -4 3 C-5.31068333 5.44288628 -5.31068333 5.44288628 -6 8 C-6.33 8.33 -6.66 8.66 -7 9 C-7.33 32.76 -7.66 56.52 -8 81 C71.86 81 151.72 81 234 81 C234 56.58 234 32.16 234 7 C234.33 7 234.66 7 235 7 C235 32.08 235 57.16 235 83 C154.48 83 73.96 83 -9 83 C-9 7 -9 7 -4 1 C-1.6875 0.125 -1.6875 0.125 0 0 Z " fill="#177986" transform="translate(61,0)"/>
<path d="M0 0 C3.55247432 0.87379409 4.94828114 2.4927342 6.9375 5.4765625 C7.63535446 8.31374128 7.64783909 10.64093467 6.9375 13.4765625 C4.51652228 16.82320817 2.84990083 18.17242889 -1.0625 19.4765625 C-4.7485549 19.4765625 -6.21175356 18.78797854 -9.0625 16.4765625 C-11.37391604 13.62581606 -12.0625 12.1626174 -12.0625 8.4765625 C-10.00437995 2.30220234 -6.40827508 -0.46120162 0 0 Z " fill="#F6F7F7" transform="translate(95.0625,32.5234375)"/>
<path d="M0 0 C3.02877049 2.25546739 4.56968943 3.951118 6 7.4375 C6 11.02912215 4.95189051 13.00710122 3 16 C0.15739513 18.38164192 -1.28405267 19 -5 19 C-8.80772345 17.73075885 -10.51223559 16.12747526 -13 13 C-14.42001879 9.5387042 -14.12942622 8.33003686 -12.75 4.8125 C-9.60556194 -0.24106117 -5.63895735 -1.07722772 0 0 Z " fill="#F3F7F8" transform="translate(178,33)"/>
<path d="M0 0 C2.75329021 1.79562405 4.52627461 3.05254922 6 6 C6.56697279 10.15780044 6.17585579 11.72587185 3.875 15.3125 C0.68341029 18.29594255 -0.6664911 19.09028144 -5 19 C-8.63381505 17.39436079 -11.09567609 15.5079651 -13 12 C-13.58490372 8.07278932 -13.34594305 6.51891457 -11.125 3.1875 C-7.57218626 -0.46980826 -5.03088285 -0.426346 0 0 Z " fill="#F6F7F7" transform="translate(137,33)"/>
<path d="M0 0 C0 3 0 3 -1.46875 4.5 C-2.1390625 4.995 -2.809375 5.49 -3.5 6 C-4.1496875 6.495 -4.799375 6.99 -5.46875 7.5 C-12.29599806 11.54577663 -18.1465294 12.43667953 -25.92150879 12.36076355 C-26.89206254 12.36332682 -27.8626163 12.3658901 -28.86258078 12.36853105 C-32.09931395 12.37345378 -35.33557576 12.35700071 -38.57226562 12.34057617 C-40.89853911 12.33972957 -43.2248134 12.34020568 -45.55108643 12.34190369 C-51.85626716 12.34276378 -58.1612764 12.32513542 -64.46641731 12.30418181 C-70.3911701 12.28731952 -76.31591639 12.28431082 -82.24068993 12.2812262 C-93.97169015 12.274669 -105.70262759 12.25472778 -117.43359375 12.22631836 C-128.82551765 12.19875879 -140.21742447 12.17753452 -151.609375 12.16479492 C-152.31220417 12.16400675 -153.01503334 12.16321858 -153.73916036 12.16240653 C-157.26523599 12.15849126 -160.79131175 12.15470017 -164.31738758 12.15097082 C-193.54496588 12.11989773 -222.7724821 12.06685808 -252 12 C-252 11.67 -252 11.34 -252 11 C-250.79809084 10.99853344 -249.59618168 10.99706688 -248.35785103 10.99555588 C-219.80444592 10.95982682 -191.25113004 10.90354658 -162.69781978 10.82207905 C-159.18070839 10.81206201 -155.66359654 10.80221781 -152.14648438 10.79248047 C-151.44631301 10.7905391 -150.74614164 10.78859772 -150.02475296 10.78659752 C-138.69892572 10.7556061 -127.37311872 10.73860486 -116.04725708 10.72680578 C-104.41932186 10.71437938 -92.79149862 10.68654841 -81.16362941 10.64538693 C-74.63516426 10.62276253 -68.10685027 10.60708993 -61.57834244 10.60811615 C-55.43056005 10.60886216 -49.28311193 10.59093432 -43.13541603 10.55883217 C-40.88205172 10.55033004 -38.62864993 10.54858534 -36.37527657 10.55419731 C-33.29114738 10.56085375 -30.20807664 10.54287631 -27.12405396 10.51898193 C-25.7961873 10.53062256 -25.7961873 10.53062256 -24.44149506 10.54249835 C-18.14446814 10.4565293 -12.48301731 9.21923221 -7 6 C-5.9590054 4.69842095 -4.95310892 3.36724583 -4 2 C-1.8125 0.75 -1.8125 0.75 0 0 Z " fill="#DFFEFE" transform="translate(308,232)"/>
<path d="M0 0 C1.19431641 0.00193359 2.38863281 0.00386719 3.61914062 0.00585938 C4.85212891 0.01810547 6.08511719 0.03035156 7.35546875 0.04296875 C8.60779297 0.04361328 9.86011719 0.04425781 11.15039062 0.04492188 C20.4026036 0.0901036 20.4026036 0.0901036 21.54296875 1.23046875 C21.64008817 3.53403308 21.66483445 5.84064533 21.66322327 8.14625549 C21.66407769 8.87806579 21.66493212 9.60987609 21.66581243 10.36386245 C21.66746941 12.83447754 21.66194234 15.30502585 21.65649414 17.77563477 C21.65621229 19.53930662 21.65636996 21.3029786 21.65693665 23.06665039 C21.6572247 27.87016718 21.65132667 32.67365922 21.64436269 37.47717023 C21.63813049 42.4913656 21.63752546 47.50556148 21.63633728 52.51976013 C21.63322357 62.02183635 21.62500964 71.52390113 21.61498779 81.02597231 C21.60382789 91.84078214 21.59831651 102.6555925 21.59329236 113.47040665 C21.58282706 135.72376708 21.56522685 157.9771172 21.54296875 180.23046875 C21.21296875 180.23046875 20.88296875 180.23046875 20.54296875 180.23046875 C20.21296875 121.16046875 19.88296875 62.09046875 19.54296875 1.23046875 C-1.59414859 -0.13400397 -1.59414859 -0.13400397 -12.45703125 8.23046875 C-12.45703125 6.25046875 -12.45703125 4.27046875 -12.45703125 2.23046875 C-8.14948221 0.59534176 -4.59923634 -0.01728399 0 0 Z " fill="#D2FFFF" transform="translate(12.45703125,40.76953125)"/>
<path d="M0 0 C0.78688445 2.77723925 1.11949924 5.22610077 1.09765625 8.109375 C1.09282227 9.24052734 1.09282227 9.24052734 1.08789062 10.39453125 C1.07532227 11.56048828 1.07532227 11.56048828 1.0625 12.75 C1.05798828 13.54277344 1.05347656 14.33554687 1.04882812 15.15234375 C1.03708565 17.10159508 1.01915146 19.05080738 1 21 C2.57467041 20.98428955 2.57467041 20.98428955 4.18115234 20.96826172 C8.06865033 20.93211547 11.95613341 20.90911922 15.84375 20.89013672 C17.52769466 20.88006683 19.21162179 20.86641012 20.89550781 20.84912109 C23.31319501 20.82491574 25.73065143 20.81352704 28.1484375 20.8046875 C28.9036972 20.79436493 29.65895691 20.78404236 30.43710327 20.77340698 C32.2929398 20.77300682 34.1481928 20.87777284 36 21 C36.99 21.99 36.99 21.99 38 23 C37.67 23.99 37.34 24.98 37 26 C36.16645996 25.5155542 35.33291992 25.0311084 34.47412109 24.53198242 C30.53581892 22.79531017 27.70377468 22.57407549 23.4140625 22.48828125 C22.71227875 22.47033005 22.010495 22.45237885 21.28744507 22.43388367 C19.06668947 22.38010953 16.8461446 22.34599307 14.625 22.3125 C13.11064796 22.27929763 11.59632362 22.24480529 10.08203125 22.20898438 C6.38799611 22.1219945 2.69489065 22.06165238 -1 22 C-1 15.4 -1 8.8 -1 2 C-34.66 2 -68.32 2 -103 2 C-103 1.67 -103 1.34 -103 1 C-89.86577785 0.86950015 -76.73155465 0.7391061 -63.59733009 0.60884857 C-57.499131 0.54836686 -51.40093228 0.48784816 -45.30273438 0.42724609 C-39.4218695 0.36880516 -33.54100367 0.31045988 -27.66013718 0.25218201 C-25.41217388 0.22988825 -23.16421093 0.20755954 -20.91624832 0.18519592 C-17.7770115 0.15397143 -14.63777349 0.12286923 -11.49853516 0.09179688 C-10.0926841 0.07777077 -10.0926841 0.07777077 -8.65843201 0.0634613 C-7.80585312 0.05504715 -6.95327423 0.046633 -6.07485962 0.03796387 C-4.9604119 0.02690235 -4.9604119 0.02690235 -3.82345009 0.01561737 C-2.54900284 0.00470206 -1.27449399 0 0 0 Z " fill="#E0FEFE" transform="translate(226,304)"/>
<path d="M0 0 C0.33 0 0.66 0 1 0 C1.02360604 8.34797376 1.0411524 16.69593264 1.05181217 25.04393196 C1.05693902 28.92399432 1.06384006 32.80403319 1.07543945 36.68408203 C1.1201995 52.12939155 1.12022022 67.5725666 0.67733574 83.0128746 C0.62246302 84.94399921 0.5753005 86.87533804 0.52833557 88.80667114 C0.48990036 89.96214447 0.45146515 91.1176178 0.41186523 92.30810547 C0.36533058 93.81943558 0.36533058 93.81943558 0.31785583 95.36129761 C-0.00195405 98.01622171 -0.64656875 99.71581317 -2 102 C-2.02477941 97.1070187 -2.04289763 92.2140742 -2.05493164 87.32104492 C-2.05995023 85.65762699 -2.06676652 83.99421344 -2.07543945 82.33081055 C-2.08761357 79.93537307 -2.09325314 77.53999409 -2.09765625 75.14453125 C-2.10281754 74.4047554 -2.10797882 73.66497955 -2.11329651 72.90278625 C-2.11360006 70.08818837 -2.08766454 67.41593568 -1.5057373 64.65490723 C-0.93162503 61.64106027 -0.83841594 58.80888975 -0.79467773 55.7409668 C-0.7647599 53.87960335 -0.7647599 53.87960335 -0.73423767 51.9806366 C-0.71725743 50.63683189 -0.70037848 49.29302591 -0.68359375 47.94921875 C-0.66300474 46.56630357 -0.64200777 45.1833944 -0.62062073 43.80049133 C-0.56560101 40.17232151 -0.5161037 36.54409679 -0.46777344 32.91583252 C-0.41741102 29.208813 -0.36180213 25.50187254 -0.30664062 21.79492188 C-0.19930516 14.530015 -0.09780627 7.26504208 0 0 Z " fill="#DFFDFE" transform="translate(315,123)"/>
<path d="M0 0 C0.33 0.66 0.66 1.32 1 2 C-0.175625 2.0928125 -0.175625 2.0928125 -1.375 2.1875 C-2.24125 2.455625 -3.1075 2.72375 -4 3 C-5.31068333 5.44288628 -5.31068333 5.44288628 -6 8 C-6.33 8.33 -6.66 8.66 -7 9 C-7.1241622 11.26920225 -7.17803748 13.5422645 -7.20532227 15.81469727 C-7.21522186 16.52685394 -7.22512146 17.23901062 -7.23532104 17.9727478 C-7.26702212 20.33726628 -7.29172724 22.70180489 -7.31640625 25.06640625 C-7.33696836 26.70166052 -7.35796463 28.33690938 -7.37937927 29.97215271 C-7.43467672 34.28428786 -7.48405201 38.59647158 -7.53222656 42.90869141 C-7.58238572 47.30570824 -7.63810087 51.7026542 -7.69335938 56.09960938 C-7.80103473 64.73301307 -7.90245871 73.3664759 -8 82 C-8.33 82 -8.66 82 -9 82 C-9.11597197 72.32493994 -9.20475455 62.65012 -9.25906086 52.97451591 C-9.28512848 48.48145836 -9.32047407 43.98887716 -9.37719727 39.49609375 C-9.43161919 35.1583197 -9.46144186 30.82100313 -9.47438622 26.48291397 C-9.48360793 24.82989426 -9.5016163 23.17689892 -9.52865028 21.52407455 C-9.56507833 19.2041435 -9.56993996 16.8860901 -9.56762695 14.56591797 C-9.57873001 13.24687469 -9.58983307 11.92783142 -9.60127258 10.56881714 C-8.81331182 5.89192357 -7.34000288 4.30513529 -4 1 C-1.6875 0.125 -1.6875 0.125 0 0 Z " fill="#177A86" transform="translate(61,0)"/>
<path d="M0 0 C2.75329021 1.79562405 4.52627461 3.05254922 6 6 C6.56697279 10.15780044 6.17585579 11.72587185 3.875 15.3125 C0.68341029 18.29594255 -0.6664911 19.09028144 -5 19 C-8.63381505 17.39436079 -11.09567609 15.5079651 -13 12 C-13.58490372 8.07278932 -13.34594305 6.51891457 -11.125 3.1875 C-7.57218626 -0.46980826 -5.03088285 -0.426346 0 0 Z M-10.625 3.6875 C-12.2191863 5.90104765 -12.2191863 5.90104765 -11.9375 8.4375 C-10.85554458 11.39484481 -10.03041365 13.56350362 -8 16 C-3.91390147 17.28636435 -1.93353457 17.45683606 1.9375 15.5625 C4.09123507 12.88664734 4.36136447 12.2044763 4.5 8.9375 C4.34521284 5.1826531 4.34521284 5.1826531 2.74609375 3.28125 C-0.03704964 1.23903293 -2.48388988 1.52827582 -5.83203125 1.6484375 C-8.20548535 1.88531028 -8.20548535 1.88531028 -10.625 3.6875 Z " fill="#DBFDFE" transform="translate(137,33)"/>
<path d="M0 0 C0.33 0 0.66 0 1 0 C1.02888514 3.14581423 1.04675923 6.29159469 1.0625 9.4375 C1.07087891 10.33533203 1.07925781 11.23316406 1.08789062 12.15820312 C1.09111328 13.01220703 1.09433594 13.86621094 1.09765625 14.74609375 C1.10289307 15.53685303 1.10812988 16.3276123 1.11352539 17.14233398 C1 19 1 19 0 20 C-2.51880517 20.15988491 -5.01342266 20.25934225 -7.53515625 20.31640625 C-8.28840683 20.33718735 -9.04165741 20.35796844 -9.81773376 20.37937927 C-12.2325599 20.44495425 -14.64749798 20.50379621 -17.0625 20.5625 C-18.69597529 20.6056777 -20.3294391 20.64929173 -21.96289062 20.69335938 C-25.97514464 20.80064362 -29.98751164 20.90188821 -34 21 C-31.13454405 18.13454405 -29.03185244 18.68370372 -25.0234375 18.5859375 C-24.33819 18.56657135 -23.6529425 18.5472052 -22.94692993 18.5272522 C-20.75641356 18.46743169 -18.5658447 18.42106244 -16.375 18.375 C-14.89060198 18.33682237 -13.40622616 18.29777076 -11.921875 18.2578125 C-8.28145315 18.16172916 -4.64086564 18.07770718 -1 18 C-1.01160156 16.78441406 -1.02320313 15.56882812 -1.03515625 14.31640625 C-1.04453278 12.73177236 -1.05363313 11.14713682 -1.0625 9.5625 C-1.07087891 8.76005859 -1.07925781 7.95761719 -1.08789062 7.13085938 C-1.0965143 5.08704779 -1.0522815 3.04316098 -1 1 C-0.67 0.67 -0.34 0.34 0 0 Z " fill="#DFFDFE" transform="translate(122,306)"/>
<path d="M0 0 C3 2 3 2 5 5 C5.39956124 7.80730687 5.24224238 10.14153994 5 13 C4.67 13 4.34 13 4 13 C3.896875 11.906875 3.79375 10.81375 3.6875 9.6875 C2.95315172 5.55944323 2.95315172 5.55944323 0 3 C-0.99 2.67 -1.98 2.34 -3 2 C-2.67 3.32 -2.34 4.64 -2 6 C-3.98 6.99 -3.98 6.99 -6 8 C-6.66 7.01 -7.32 6.02 -8 5 C-7.67 4.34 -7.34 3.68 -7 3 C-7.99 3.33 -8.98 3.66 -10 4 C-11.71567661 7.50294871 -11.71567661 7.50294871 -13 11 C-13.75 9.375 -13.75 9.375 -14 7 C-10.38810822 0.64805239 -7.36341148 -1.21080954 0 0 Z " fill="#E5FBFD" transform="translate(97,33)"/>
<path d="M0 0 C4.4231239 2.09368138 8.14975932 4.89995586 12.0625 7.8125 C12.78244141 8.33392578 13.50238281 8.85535156 14.24414062 9.39257812 C18.01429353 12.19656371 21.11320084 14.55254485 23 19 C22.6875 22.3125 22.6875 22.3125 22 25 C21.67 25 21.34 25 21 25 C21 23.80375 21 22.6075 21 21.375 C20.66374252 18.4676661 20.26421771 17.27757377 18.22265625 15.1328125 C14.49101895 12.0732701 14.49101895 12.0732701 10 11 C9.67 10.01 9.34 9.02 9 8 C7.17278008 6.40408793 7.17278008 6.40408793 5 4.9375 C1.10041265 2.20082531 1.10041265 2.20082531 0 0 Z " fill="#DFFDFE" transform="translate(242,143)"/>
<path d="M0 0 C1.32 0.33 2.64 0.66 4 1 C2.7625 2.051875 2.7625 2.051875 1.5 3.125 C-1.21678543 5.75976412 -1.21678543 5.75976412 -1.5625 9 C-0.83463003 12.88197317 -0.02042858 14.42158536 3 17 C5.9984205 17.70186779 8.9263309 17.92775564 12 18 C12 18.66 12 19.32 12 20 C10.54176788 20.0270043 9.08339325 20.04639787 7.625 20.0625 C6.81289062 20.07410156 6.00078125 20.08570312 5.1640625 20.09765625 C3 20 3 20 1 19 C1 18.34 1 17.68 1 17 C-0.32 16.34 -1.64 15.68 -3 15 C-3 10.71 -3 6.42 -3 2 C-2.01 2 -1.02 2 0 2 C0 1.34 0 0.68 0 0 Z " fill="#147A89" transform="translate(126,33)"/>
<path d="M0 0 C1.79824219 0.00966797 1.79824219 0.00966797 3.6328125 0.01953125 C5.4890625 0.04466797 5.4890625 0.04466797 7.3828125 0.0703125 C8.64351562 0.07933594 9.90421875 0.08835938 11.203125 0.09765625 C14.3048829 0.12115442 17.40624902 0.15400916 20.5078125 0.1953125 C21.0028125 1.6803125 21.0028125 1.6803125 21.5078125 3.1953125 C20.8478125 3.1953125 20.1878125 3.1953125 19.5078125 3.1953125 C19.5078125 2.5353125 19.5078125 1.8753125 19.5078125 1.1953125 C15.44427506 1.24725414 11.38285218 1.34235006 7.3203125 1.4453125 C6.16982422 1.45949219 5.01933594 1.47367188 3.83398438 1.48828125 C2.72216797 1.52050781 1.61035156 1.55273438 0.46484375 1.5859375 C-0.55633545 1.60688477 -1.57751465 1.62783203 -2.62963867 1.64941406 C-7.02784822 2.48816856 -9.40876108 5.11188608 -12.4921875 8.1953125 C-12.4921875 6.2153125 -12.4921875 4.2353125 -12.4921875 2.1953125 C-8.16398277 0.54728725 -4.62233166 -0.04402221 0 0 Z " fill="#E1FDFE" transform="translate(12.4921875,40.8046875)"/>
<path d="M0 0 C1.65 0.66 3.3 1.32 5 2 C5.38671875 4.1484375 5.38671875 4.1484375 5 7 C2.97387406 9.11808773 1.0946481 10.83276287 -1.1875 12.625 C-2.0547168 13.34042969 -2.0547168 13.34042969 -2.93945312 14.0703125 C-6.12612241 16.662857 -9.31315028 19.15330085 -13 21 C-13.66 20.67 -14.32 20.34 -15 20 C-9.06 15.38 -3.12 10.76 3 6 C2.34 4.68 1.68 3.36 1 2 C0.67 1.34 0.34 0.68 0 0 Z " fill="#E0FDFD" transform="translate(234,159)"/>
<path d="M0 0 C1.77503906 0.03480469 1.77503906 0.03480469 3.5859375 0.0703125 C5.36871094 0.09738281 5.36871094 0.09738281 7.1875 0.125 C8.10273438 0.14820312 9.01796875 0.17140625 9.9609375 0.1953125 C10.2909375 0.8553125 10.6209375 1.5153125 10.9609375 2.1953125 C9.2284375 2.0096875 9.2284375 2.0096875 7.4609375 1.8203125 C2.02918564 1.76211516 -1.14276819 4.71351758 -5.0390625 8.1953125 C-5.6990625 7.8653125 -6.3590625 7.5353125 -7.0390625 7.1953125 C-4.49457802 0.28885463 -4.49457802 0.28885463 0 0 Z " fill="#0F7D8A" transform="translate(127.0390625,122.8046875)"/>
<path d="M0 0 C0 0.99 0 1.98 0 3 C-1.96876633 4.69630313 -3.88673162 6.19536118 -6 7.6875 C-6.57234375 8.10322266 -7.1446875 8.51894531 -7.734375 8.94726562 C-9.14996532 9.97356861 -10.57419631 10.98793399 -12 12 C-12 8.69727388 -11.43339634 5.43339634 -9 3 C-7.2984375 2.7834375 -7.2984375 2.7834375 -5.5625 2.5625 C-1.95941003 2.35152449 -1.95941003 2.35152449 0 0 Z " fill="#E5FBFB" transform="translate(262,168)"/>
<path d="M0 0 C0 0.33 0 0.66 0 1 C-1.2375 1.0825 -2.475 1.165 -3.75 1.25 C-6.61184082 1.62989037 -7.95557068 1.97151966 -10.4375 3.5625 C-12.66428983 7.03629214 -12.7266257 9.89938553 -13 14 C-13.66 14 -14.32 14 -15 14 C-15.33 10.37 -15.66 6.74 -16 3 C-10.4477112 0.1647887 -6.19887485 -0.37952295 0 0 Z " fill="#147B88" transform="translate(178,32)"/>
<path d="M0 0 C0.70125 0.639375 1.4025 1.27875 2.125 1.9375 C5.28693907 4.20584759 7.15364402 4.75448792 11 5 C13.27650745 4.6422386 13.27650745 4.6422386 15 4 C15 4.66 15 5.32 15 6 C14.34 6 13.68 6 13 6 C12.67 6.66 12.34 7.32 12 8 C9.03 8 6.06 8 3 8 C3 7.34 3 6.68 3 6 C2.01 6.33 1.02 6.66 0 7 C-1.125 2.25 -1.125 2.25 0 0 Z " fill="#0E7E88" transform="translate(165,46)"/>
<path d="M0 0 C1.32 0.33 2.64 0.66 4 1 C3.525625 1.350625 3.05125 1.70125 2.5625 2.0625 C0.27806915 4.89519426 0.25087245 7.42506763 0 11 C0.34659295 13.32158065 0.34659295 13.32158065 1 15 C-1.475 14.01 -1.475 14.01 -4 13 C-4 10.36 -4 7.72 -4 5 C-3.34 5 -2.68 5 -2 5 C-1.34 3.35 -0.68 1.7 0 0 Z " fill="#0F7D8D" transform="translate(206,125)"/>
<path d="M0 0 C7.1826087 -0.60869565 7.1826087 -0.60869565 10.9375 2.1875 C13.04021316 5.05483613 13.91190146 6.47605824 14 10 C13.0625 12.8125 13.0625 12.8125 12 15 C11 12 11 12 11.1875 9 C11.2949464 5.99459717 11.2949464 5.99459717 9.5 4.1875 C5.99565869 2.52293788 2.86296406 2.32191367 -1 2 C-0.67 1.34 -0.34 0.68 0 0 Z " fill="#DAFDFE" transform="translate(170,33)"/>
<path d="M0 0 C0.66 0.33 1.32 0.66 2 1 C1.01 2.98 0.02 4.96 -1 7 C0.32 6.67 1.64 6.34 3 6 C3.66 7.98 4.32 9.96 5 12 C1.56404834 10.47291037 -1.11912454 8.40072955 -4 6 C-2.84826645 3.53199953 -1.95216435 1.95216435 0 0 Z " fill="#117C87" transform="translate(114,159)"/>
<path d="M0 0 C2.7839183 1.39195915 2.97898997 3.15575779 4 6 C5.65 6 7.3 6 9 6 C9.33 6.99 9.66 7.98 10 9 C9.67 9.66 9.34 10.32 9 11 C5.96147295 9.59023295 3.4060405 7.91129772 0.75 5.875 C0.04359375 5.33617187 -0.6628125 4.79734375 -1.390625 4.2421875 C-1.92171875 3.83226562 -2.4528125 3.42234375 -3 3 C-2.01 2.67 -1.02 2.34 0 2 C0 1.34 0 0.68 0 0 Z " fill="#0F7E89" transform="translate(235,132)"/>
<path d="M0 0 C0.66 0.33 1.32 0.66 2 1 C-0.80898602 5.21347902 -4.85445798 7.04015225 -9.375 9.0625 C-11.35764383 9.96674867 -11.35764383 9.96674867 -12 13 C-15.0625 14.1875 -15.0625 14.1875 -18 15 C-14.31911357 11.15274582 -10.43814081 7.88614275 -6.1875 4.6875 C-5.59001953 4.23310547 -4.99253906 3.77871094 -4.37695312 3.31054688 C-2.92052412 2.20366083 -1.46062183 1.10134736 0 0 Z " fill="#E1FDFE" transform="translate(124,128)"/>
<path d="M0 0 C0.66 0.33 1.32 0.66 2 1 C1.09515208 2.15518918 0.1755794 3.29885406 -0.75 4.4375 C-1.26046875 5.07558594 -1.7709375 5.71367187 -2.296875 6.37109375 C-4.22834407 8.21839329 -5.42251625 8.50113218 -8 9 C-10.2072358 10.48800372 -10.2072358 10.48800372 -12 12 C-12.66 11.67 -13.32 11.34 -14 11 C-9.38 7.37 -4.76 3.74 0 0 Z " fill="#E5FBFE" transform="translate(104,143)"/>
<path d="M0 0 C0.56847656 0.3609375 1.13695313 0.721875 1.72265625 1.09375 C6.79303114 4.14105377 10.07906443 5.62988676 16 5 C15.67 5.66 15.34 6.32 15 7 C10.33333333 7 5.66666667 7 1 7 C1.33 5.68 1.66 4.36 2 3 C1.34 2.67 0.68 2.34 0 2 C0 1.34 0 0.68 0 0 Z " fill="#127B89" transform="translate(122,198)"/>
<path d="M0 0 C0.66 0.66 1.32 1.32 2 2 C1.69903201 6.13830989 1.32101984 8.51847024 -1 12 C-1.66 11.67 -2.32 11.34 -3 11 C-2.34 9.68 -1.68 8.36 -1 7 C-1.66 7 -2.32 7 -3 7 C-3.33 7.66 -3.66 8.32 -4 9 C-4 6 -4 6 -2.5625 4.5 C-2.046875 4.005 -1.53125 3.51 -1 3 C-0.67 2.01 -0.34 1.02 0 0 Z " fill="#E4FBF9" transform="translate(141,129)"/>
<path d="M0 0 C0.93423645 3.01031744 1.04449911 3.86650268 0 7 C0.66 7 1.32 7 2 7 C0.125 11.75 0.125 11.75 -1 14 C-1.99 14 -2.98 14 -4 14 C-3.52188823 12.22888156 -3.0424722 10.45811517 -2.5625 8.6875 C-2.29566406 7.70136719 -2.02882812 6.71523437 -1.75390625 5.69921875 C-1.21920575 3.78482474 -0.62855462 1.88566385 0 0 Z " fill="#117C8A" transform="translate(179,178)"/>
<path d="M0 0 C2.375 2 2.375 2 4 4 C2.14375 3.7215625 2.14375 3.7215625 0.25 3.4375 C-3.97142654 2.88378506 -3.97142654 2.88378506 -8 4 C-10.22977996 5.97901574 -10.22977996 5.97901574 -12 8 C-9.92951474 1.61600377 -6.88248866 -1.00369626 0 0 Z " fill="#E0FCFD" transform="translate(187,124)"/>
<path d="M0 0 C1.24021265 2.4804253 0.90141437 3.59839149 0.5 6.3125 C0.05616559 9.79575743 0.00740891 12.58107514 1 16 C-1.70453851 13.41305012 -2.90897461 12.02403561 -3.25 8.1875 C-2.97212427 4.64458445 -2.02619474 2.87044255 0 0 Z " fill="#107C85" transform="translate(85,329)"/>
<path d="M0 0 C1.03125 0.515625 2.0625 1.03125 3.125 1.5625 C6.76222949 3.1234163 9.14003624 3.14044384 13 2 C13.99 1.34 14.98 0.68 16 0 C15.06788763 2.33028092 14.30996602 3.75891532 12.3125 5.3125 C8.92838082 6.31858949 6.40333226 5.80442399 3 5 C1.0625 3.5625 1.0625 3.5625 0 2 C0 1.34 0 0.68 0 0 Z " fill="#DFFCFE" transform="translate(85,46)"/>
<path d="M0 0 C1.65 0.33 3.3 0.66 5 1 C-1.525 7.8875 -1.525 7.8875 -6.75 8.125 C-7.4925 8.08375 -8.235 8.0425 -9 8 C-7.68 7.67 -6.36 7.34 -5 7 C-5 6.34 -5 5.68 -5 5 C-3.68 5 -2.36 5 -1 5 C-0.67 3.35 -0.34 1.7 0 0 Z " fill="#E4FCFC" transform="translate(221,196)"/>
<path d="M0 0 C0.33 0 0.66 0 1 0 C1 2.64 1 5.28 1 8 C1.66 8 2.32 8 3 8 C4.625 10 4.625 10 6 12 C5.67 12.66 5.34 13.32 5 14 C1.66988653 11.18221168 0.14734451 9.62095188 -0.875 5.3125 C-1 2 -1 2 0 0 Z " fill="#DEFDFE" transform="translate(206,129)"/>
<path d="M0 0 C0.66 0.33 1.32 0.66 2 1 C0.02 3.31 -1.96 5.62 -4 8 C-5.32 7.67 -6.64 7.34 -8 7 C-5.4837822 4.39391727 -2.94865641 2.10618315 0 0 Z " fill="#107C89" transform="translate(227,196)"/>
<path d="M0 0 C0.66 0.33 1.32 0.66 2 1 C1.43628586 4.26954202 0.50037734 5.82575883 -2 8 C-2.66 7.34 -3.32 6.68 -4 6 C-4.66 5.67 -5.32 5.34 -6 5 C-4.02 3.35 -2.04 1.7 0 0 Z " fill="#0D7D8B" transform="translate(235,190)"/>
<path d="M0 0 C0.66 0.33 1.32 0.66 2 1 C2 2.32 2 3.64 2 5 C0.02 5.66 -1.96 6.32 -4 7 C-4.66 6.34 -5.32 5.68 -6 5 C-4.02 3.35 -2.04 1.7 0 0 Z " fill="#0C7D8D" transform="translate(122,153)"/>
<path d="M0 0 C2.625 0.9375 2.625 0.9375 5 2 C2.51047079 4.66735273 0.36591866 6.55746343 -3 8 C-2.74438677 5.6568787 -2.40729228 3.32156597 -2 1 C-1.34 0.67 -0.68 0.34 0 0 Z " fill="#E8FAF9" transform="translate(244,178)"/>
<path d="M0 0 C0.66 0.33 1.32 0.66 2 1 C1.67 1.33 1.34 1.66 1 2 C0.76636119 3.84891946 0.58696365 5.70488031 0.4375 7.5625 C0.35371094 8.57441406 0.26992187 9.58632813 0.18359375 10.62890625 C0.12300781 11.41136719 0.06242188 12.19382812 0 13 C-2.44988842 10.55011158 -2.7658669 9.43395207 -3 6 C-1.5625 2.6875 -1.5625 2.6875 0 0 Z " fill="#DDFDFC" transform="translate(167,35)"/>
<path d="M0 0 C4.875 4.75 4.875 4.75 6 7 C4.02 7.33 2.04 7.66 0 8 C-0.79953138 4.71303767 -1.09658936 3.28976808 0 0 Z " fill="#0F7C8B" transform="translate(37,231)"/>
<path d="M0 0 C0.66 0.33 1.32 0.66 2 1 C0.55746343 4.36591866 -1.33264727 6.51047079 -4 9 C-4.33 8.01 -4.66 7.02 -5 6 C-3.59554165 3.7363436 -1.8032087 1.9791315 0 0 Z " fill="#117C89" transform="translate(5,43)"/>
<path d="M0 0 C0.66 0.33 1.32 0.66 2 1 C2.38218767 2.65614657 2.71395102 4.32457024 3 6 C3.33 6.66 3.66 7.32 4 8 C1.11562221 6.70700306 -0.87219421 5.34058637 -3 3 C-2.01 2.01 -1.02 1.02 0 0 Z " fill="#EBFAFD" transform="translate(93,170)"/>
<path d="M0 0 C0.99 0.33 1.98 0.66 3 1 C3.33 4.3 3.66 7.6 4 11 C3.01 11.33 2.02 11.66 1 12 C1.020625 10.7625 1.04125 9.525 1.0625 8.25 C1.06766681 5.3359175 0.93015558 2.79046673 0 0 Z " fill="#E3FDFE" transform="translate(264,330)"/>
<path d="M0 0 C0.185625 0.8971875 0.185625 0.8971875 0.375 1.8125 C0.95475985 4.26231348 0.95475985 4.26231348 3 7 C2.01 7 1.02 7 0 7 C-0.66 8.32 -1.32 9.64 -2 11 C-3 9 -3 9 -2.44140625 6.8359375 C-2.15136719 6.02382812 -1.86132812 5.21171875 -1.5625 4.375 C-1.27503906 3.55773437 -0.98757812 2.74046875 -0.69140625 1.8984375 C-0.46324219 1.27195313 -0.23507813 0.64546875 0 0 Z " fill="#147A85" transform="translate(187,154)"/>
<path d="M0 0 C1.32 0.33 2.64 0.66 4 1 C1.36 2.65 -1.28 4.3 -4 6 C-4 4.35 -4 2.7 -4 1 C-2.68 1.33 -1.36 1.66 0 2 C0 1.34 0 0.68 0 0 Z " fill="#E7FBFD" transform="translate(116,155)"/>
<path d="M0 0 C2.88437779 1.29299694 4.87219421 2.65941363 7 5 C4.36 4.67 1.72 4.34 -1 4 C-0.67 2.68 -0.34 1.36 0 0 Z " fill="#107B8A" transform="translate(212,144)"/>
<path d="M0 0 C1.32 0.66 2.64 1.32 4 2 C4 1.34 4 0.68 4 0 C5.65 0 7.3 0 9 0 C7.4375 1.5625 7.4375 1.5625 5 3 C1.25 2.6875 1.25 2.6875 -2 2 C-1.34 1.34 -0.68 0.68 0 0 Z " fill="#E3FDFE" transform="translate(131,201)"/>
<path d="M0 0 C2.62187494 1.04874998 3.79371361 1.64931313 5.25 4.125 C5.4975 4.74375 5.745 5.3625 6 6 C5.01 6.66 4.02 7.32 3 8 C2.87625 7.195625 2.7525 6.39125 2.625 5.5625 C2.315625 4.2940625 2.315625 4.2940625 2 3 C1.34 2.67 0.68 2.34 0 2 C0 1.34 0 0.68 0 0 Z " fill="#1A7885" transform="translate(232,159)"/>
</svg>
